<svg width="1748.7810546875px" height="498.300341796875px" xmlns="http://www.w3.org/2000/svg" viewBox="-624.39052734375 -174.1501708984375 1748.7810546875 498.300341796875" style="background: rgba(0, 0, 0, 0);" preserveAspectRatio="xMidYMid"><defs><filter id="editing-extrude-glow"><feFlood flood-color="#ffffff" result="flood-1"></feFlood><feMorphology operator="erode" radius="1" in="SourceAlpha" result="erode"></feMorphology><feComposite operator="in" in="flood-1" in2="erode" result="comp1"></feComposite><feConvolveMatrix order="4,4" divisor="1" in="comp1" result="convolve" kernelMatrix="0 0 0 0 0 0 0 0 1 1 1 1 0 0 0 0"></feConvolveMatrix><feOffset dx="-4" dy="0" in="convolve" result="extrude"></feOffset><feComposite operator="in" in="flood-1" in2="extrude" result="comp-extrude"></feComposite><feFlood flood-color="#e93927" result="flood-2"></feFlood><feComposite operator="in" in="flood-2" in2="SourceAlpha" result="comp2"></feComposite><feMorphology operator="dilate" radius="1" in="comp2" result="dilate"></feMorphology><feOffset dx="-6" dy="0" in="dilate" result="offset"></feOffset><feGaussianBlur in="offset" stdDeviation="5.8" result="blur"></feGaussianBlur><feComponentTransfer in="blur" result="shadow"><feFuncA type="linear" slope="0.8" intercept="-0.2"></feFuncA></feComponentTransfer><feMerge><feMergeNode in="shadow"></feMergeNode><feMergeNode in="comp-extrude"></feMergeNode><feMergeNode in="SourceGraphic"></feMergeNode></feMerge></filter></defs><g filter="url(#editing-extrude-glow)"><g transform="translate(-398.90288695693016, 214.95748138427734)"><path d="M112-44.20L112-44.20Q114.60-44.20 116.10-41.70L116.10-41.70L116.10-41.70Q117.60-39.20 117.60-35.40L117.60-35.40L117.60-35.40Q117.60-30.80 116.20-28.20L116.20-28.20L116.20-28.20Q114.80-25.60 111.80-23.60L111.80-23.60L111.80-23.60Q94.60-12 86.60-6.40L86.60-6.40L73.80 2.20L73.80 2.20Q66.20 43.60 53.90 67.30L53.90 67.30L53.90 67.30Q41.60 91 22.60 91L22.60 91L22.60 91Q12.40 91 6 84.70L6 84.70L6 84.70Q-0.40 78.40-0.40 68.20L-0.40 68.20L-0.40 68.20Q-0.40 54 10.80 37.70L10.80 37.70L10.80 37.70Q22 21.40 52.80-2.40L52.80-2.40L54-10.20L54-10.20Q50.60-4.80 45.10-1.90L45.10-1.90L45.10-1.90Q39.60 1 34.20 1L34.20 1L34.20 1Q21.80 1 14.40-8L14.40-8L14.40-8Q7-17 7-31.60L7-31.60L7-31.60Q7-47.60 14.40-61.90L14.40-61.90L14.40-61.90Q21.80-76.20 34.10-84.90L34.10-84.90L34.10-84.90Q46.40-93.60 60.20-93.60L60.20-93.60L60.20-93.60Q64.60-93.60 66.10-91.90L66.10-91.90L66.10-91.90Q67.60-90.20 68.60-85.80L68.60-85.80L68.60-85.80Q72.40-86.60 77.40-86.60L77.40-86.60L77.40-86.60Q82.40-86.60 84.50-85.10L84.50-85.10L84.50-85.10Q86.60-83.60 86.60-79.20L86.60-79.20L86.60-79.20Q86.60-76.80 86.40-75.40L86.40-75.40L86.40-75.40Q85.60-69.20 81.40-44L81.40-44L81.40-44Q80.60-39.20 79.70-33.50L79.70-33.50L79.70-33.50Q78.80-27.80 77.80-21.40L77.80-21.40L77.80-21.40Q93.20-33.40 107.40-42.60L107.40-42.60L107.40-42.60Q110-44.20 112-44.20L112-44.20ZM41.40-19.20L41.40-19.20Q46-19.20 50.20-24.80L50.20-24.80L50.20-24.80Q54.40-30.40 56.20-40.80L56.20-40.80L62.60-75L62.60-75Q54.40-74.80 47.40-68.70L47.40-68.70L47.40-68.70Q40.40-62.60 36.20-52.60L36.20-52.60L36.20-52.60Q32-42.60 32-31.40L32-31.40L32-31.40Q32-25.20 34.50-22.20L34.50-22.20L34.50-22.20Q37-19.20 41.40-19.20L41.40-19.20ZM24.80 71.60L24.80 71.60Q29.80 71.60 36.10 59.60L36.10 59.60L36.10 59.60Q42.40 47.60 48.20 21.40L48.20 21.40L48.20 21.40Q32.80 34.60 26 45.20L26 45.20L26 45.20Q19.20 55.80 19.20 63.80L19.20 63.80L19.20 63.80Q19.20 67.20 20.50 69.40L20.50 69.40L20.50 69.40Q21.80 71.60 24.80 71.60L24.80 71.60ZM131.60-106.40L131.60-106.40Q123.20-106.40 119.00-110.30L119.00-110.30L119.00-110.30Q114.80-114.20 114.80-121.20L114.80-121.20L114.80-121.20Q114.80-128.20 120.30-132.90L120.30-132.90L120.30-132.90Q125.80-137.60 134-137.60L134-137.60L134-137.60Q141.40-137.60 146-134L146-134L146-134Q150.60-130.40 150.60-123.80L150.60-123.80L150.60-123.80Q150.60-115.80 145.40-111.10L145.40-111.10L145.40-111.10Q140.20-106.40 131.60-106.40L131.60-106.40ZM130 1L130 1Q117.00 1 111.10-8.20L111.10-8.20L111.10-8.20Q105.20-17.40 105.20-32.60L105.20-32.60L105.20-32.60Q105.20-41.60 107.50-55.70L107.50-55.70L107.50-55.70Q109.80-69.80 113.40-82L113.40-82L113.40-82Q115.20-88.40 118.20-90.80L118.20-90.80L118.20-90.80Q121.20-93.20 127.80-93.20L127.80-93.20L127.80-93.20Q138-93.20 138-86.40L138-86.40L138-86.40Q138-81.40 134.20-63.20L134.20-63.20L134.20-63.20Q129.40-41.20 129.40-33.40L129.40-33.40L129.40-33.40Q129.40-27.40 131-24.20L131-24.20L131-24.20Q132.60-21 136.40-21L136.40-21L136.40-21Q140-21 145.40-26L145.40-26L145.40-26Q150.80-31 159.80-41.80L159.80-41.80L159.80-41.80Q162.20-44.60 165.20-44.60L165.20-44.60L165.20-44.60Q167.80-44.60 169.30-42.20L169.30-42.20L169.30-42.20Q170.80-39.80 170.80-35.60L170.80-35.60L170.80-35.60Q170.80-27.60 167-23.20L167-23.20L167-23.20Q147.20 1 130 1L130 1ZM243.80-44.60L243.80-44.60Q246.40-44.60 247.90-42.20L247.90-42.20L247.90-42.20Q249.40-39.80 249.40-35.60L249.40-35.60L249.40-35.60Q249.40-27.60 245.60-23.20L245.60-23.20L245.60-23.20Q237-12.60 226.80-5.80L226.80-5.80L226.80-5.80Q216.60 1 203.40 1L203.40 1L203.40 1Q162.60 1 162.60-56.40L162.60-56.40L162.60-56.40Q162.60-65.20 163.20-74.20L163.20-74.20L155.40-74.20L155.40-74.20Q149.40-74.20 147.30-76.40L147.30-76.40L147.30-76.40Q145.20-78.60 145.20-83.40L145.20-83.40L145.20-83.40Q145.20-94.60 154.20-94.60L154.20-94.60L165.60-94.60L165.60-94.60Q169-116.60 176-134.80L176-134.80L176-134.80Q183-153 192.90-163.80L192.90-163.80L192.90-163.80Q202.80-174.60 214.20-174.60L214.20-174.60L214.20-174.60Q222.60-174.60 227.40-167.20L227.40-167.20L227.40-167.20Q232.20-159.80 232.20-148.60L232.20-148.60L232.20-148.60Q232.20-117.60 206.20-94.60L206.20-94.60L228.60-94.60L228.60-94.60Q231.80-94.60 233.20-93.20L233.20-93.20L233.20-93.20Q234.60-91.80 234.60-88L234.60-88L234.60-88Q234.60-74.20 212-74.20L212-74.20L187.60-74.20L187.60-74.20Q187.20-64.20 187.20-58.60L187.20-58.60L187.20-58.60Q187.20-37.80 192.10-29.40L192.10-29.40L192.10-29.40Q197-21 207.60-21L207.60-21L207.60-21Q216.20-21 222.80-26.20L222.80-26.20L222.80-26.20Q229.40-31.40 238.40-41.80L238.40-41.80L238.40-41.80Q240.80-44.60 243.80-44.60L243.80-44.60ZM208.80-155.40L208.80-155.40Q205.80-155.40 202.10-147.90L202.10-147.90L202.10-147.90Q198.40-140.40 195.10-127.10L195.10-127.10L195.10-127.10Q191.80-113.80 189.60-97.60L189.60-97.60L189.60-97.60Q201.40-107.80 207.30-120.50L207.30-120.50L207.30-120.50Q213.20-133.20 213.20-143.60L213.20-143.60L213.20-143.60Q213.20-155.40 208.80-155.40L208.80-155.40ZM245.60-49.20L245.60-49.20Q240.80-48.80 237.90-52L237.90-52L237.90-52Q235.00-55.20 235.00-61L235.00-61L235.00-61Q235.00-66.40 237.70-69L237.70-69L237.70-69Q240.40-71.60 245.60-72L245.60-72L286.60-76L286.60-76Q291.60-76.40 294.30-73.50L294.30-73.50L294.30-73.50Q297-70.60 297-65L297-65L297-65Q297-54.20 286.60-53.20L286.60-53.20L245.60-49.20ZM427.40-44.60L427.40-44.60Q430.00-44.60 431.50-42.20L431.50-42.20L431.50-42.20Q433.00-39.80 433.00-35.60L433.00-35.60L433.00-35.60Q433.00-27.60 429.20-23.20L429.20-23.20L429.20-23.20Q421.00-13.20 411.20-6.10L411.20-6.10L411.20-6.10Q401.40 1 391.80 1L391.80 1L391.80 1Q376.60 1 368.60-16.80L368.60-16.80L368.60-16.80Q360.20-6.20 353.90-2.60L353.90-2.60L353.90-2.60Q347.60 1 339.20 1L339.20 1L339.20 1Q327.00 1 319.10-8.10L319.10-8.10L319.10-8.10Q311.20-17.20 311.20-31.80L311.20-31.80L311.20-31.80Q311.20-47.80 318.00-61.50L318.00-61.50L318.00-61.50Q324.80-75.20 336.70-83.90L336.70-83.90L336.70-83.90Q348.60-92.60 363.40-94.20L363.40-94.20L363.40-94.20Q367.20-133 377.90-160.50L377.90-160.50L377.90-160.50Q388.60-188 406.00-188L406.00-188L406.00-188Q414.60-188 420.30-180.20L420.30-180.20L420.30-180.20Q426.00-172.40 426.00-156.60L426.00-156.60L426.00-156.60Q426.00-134.20 415.00-104.20L415.00-104.20L415.00-104.20Q404.00-74.20 385.60-42.60L385.60-42.60L385.60-42.60Q386.40-31 389.10-26L389.10-26L389.10-26Q391.80-21 396.00-21L396.00-21L396.00-21Q401.40-21 407.00-25.80L407.00-25.80L407.00-25.80Q412.60-30.60 422.00-41.80L422.00-41.80L422.00-41.80Q424.40-44.60 427.40-44.60L427.40-44.60ZM403.80-168.40L403.80-168.40Q400.00-168.40 396.20-154.90L396.20-154.90L396.20-154.90Q392.40-141.40 389.70-119.60L389.70-119.60L389.70-119.60Q387.00-97.80 385.80-74L385.80-74L385.80-74Q408.20-122.80 408.20-152.40L408.20-152.40L408.20-152.40Q408.20-160 406.90-164.20L406.90-164.20L406.90-164.20Q405.60-168.40 403.80-168.40L403.80-168.40ZM346.20-19.20L346.20-19.20Q350.00-19.20 353.80-22.30L353.80-22.30L353.80-22.30Q357.60-25.40 363.40-33.80L363.40-33.80L363.40-33.80Q361.40-44.60 361.40-58L361.40-58L361.40-58Q361.40-62.80 361.80-73.60L361.80-73.60L361.80-73.60Q350.80-70.20 343.50-58.90L343.50-58.90L343.50-58.90Q336.20-47.60 336.20-33.80L336.20-33.80L336.20-33.80Q336.20-19.20 346.20-19.20L346.20-19.20ZM506.00-44.60L506.00-44.60Q508.60-44.60 510.10-42.20L510.10-42.20L510.10-42.20Q511.60-39.80 511.60-35.60L511.60-35.60L511.60-35.60Q511.60-27.60 507.80-23.20L507.80-23.20L507.80-23.20Q500.40-14.20 486.90-6.60L486.90-6.60L486.90-6.60Q473.40 1 458.00 1L458.00 1L458.00 1Q437.00 1 425.40-10.40L425.40-10.40L425.40-10.40Q413.80-21.80 413.80-41.60L413.80-41.60L413.80-41.60Q413.80-55.40 419.60-67.30L419.60-67.30L419.60-67.30Q425.40-79.20 435.70-86.20L435.70-86.20L435.70-86.20Q446.00-93.20 459.00-93.20L459.00-93.20L459.00-93.20Q470.60-93.20 477.60-86.30L477.60-86.30L477.60-86.30Q484.60-79.40 484.60-67.60L484.60-67.60L484.60-67.60Q484.60-53.80 474.70-43.90L474.70-43.90L474.70-43.90Q464.80-34 441.20-28.20L441.20-28.20L441.20-28.20Q446.20-19 460.20-19L460.20-19L460.20-19Q469.20-19 480.70-25.30L480.70-25.30L480.70-25.30Q492.20-31.60 500.60-41.80L500.60-41.80L500.60-41.80Q503.00-44.60 506.00-44.60L506.00-44.60ZM455.60-73.60L455.60-73.60Q448.20-73.60 443.10-65L443.10-65L443.10-65Q438.00-56.40 438.00-44.20L438.00-44.20L438.00-43.80L438.00-43.80Q449.80-46.60 456.60-52.20L456.60-52.20L456.60-52.20Q463.40-57.80 463.40-65.20L463.40-65.20L463.40-65.20Q463.40-69 461.30-71.30L461.30-71.30L461.30-71.30Q459.20-73.60 455.60-73.60L455.60-73.60ZM602.20-44.60L602.20-44.60Q604.80-44.60 606.30-42.20L606.30-42.20L606.30-42.20Q607.80-39.80 607.80-35.60L607.80-35.60L607.80-35.60Q607.80-27.60 604.00-23.20L604.00-23.20L604.00-23.20Q595.40-12.60 585.50-5.80L585.50-5.80L585.50-5.80Q575.60 1 563.00 1L563.00 1L563.00 1Q552.40 1 545.80-6.60L545.80-6.60L545.80-6.60Q534.40 0.80 522.00 1L522.00 1L522.00 1Q519.40 39.60 510.20 65.50L510.20 65.50L510.20 65.50Q501.00 91.40 483.20 91.40L483.20 91.40L483.20 91.40Q472.40 91.40 467.20 83.60L467.20 83.60L467.20 83.60Q462.00 75.80 462.00 62L462.00 62L462.00 62Q462.00 42.40 471.00 16.30L471.00 16.30L471.00 16.30Q480.00-9.80 498.80-41.20L498.80-41.20L498.80-41.20Q498.80-70.40 498.40-81.80L498.40-81.80L498.40-81.80Q498.20-87.60 503.00-91L503.00-91L503.00-91Q507.80-94.40 515.00-94.40L515.00-94.40L515.00-94.40Q519.20-94.40 521.10-92.70L521.10-92.70L521.10-92.70Q523.00-91 523.20-86L523.20-86L523.20-86Q523.20-81 523.40-78.60L523.40-78.60L523.40-78.60Q529.80-86.60 536.00-90.10L536.00-90.10L536.00-90.10Q542.20-93.60 549.20-93.60L549.20-93.60L549.20-93.60Q560.40-93.60 567.50-84.60L567.50-84.60L567.50-84.60Q574.60-75.60 574.60-61L574.60-61L574.60-61Q574.60-50.40 571.20-40.40L571.20-40.40L571.20-40.40Q567.80-30.40 561.80-22.20L561.80-22.20L561.80-22.20Q566.00-21 568.80-21L568.80-21L568.80-21Q575.40-21 581.40-25.80L581.40-25.80L581.40-25.80Q587.40-30.60 596.80-41.80L596.80-41.80L596.80-41.80Q599.20-44.60 602.20-44.60L602.20-44.60ZM523.00-18.20L523.00-18.20Q530.20-19.80 536.30-26.10L536.30-26.10L536.30-26.10Q542.40-32.40 546.00-41.70L546.00-41.70L546.00-41.70Q549.60-51 549.60-61.20L549.60-61.20L549.60-61.20Q549.60-67.20 547.20-70.30L547.20-70.30L547.20-70.30Q544.80-73.40 540.80-73.40L540.80-73.40L540.80-73.40Q533.60-73.40 523.40-58.20L523.40-58.20L523.40-58.20Q523.20-49.40 523.20-32.40L523.20-32.40L523.20-32.40Q523.20-23.20 523.00-18.20L523.00-18.20ZM484.80 71.80L484.80 71.80Q490.20 71.80 493.80 48.30L493.80 48.30L493.80 48.30Q497.40 24.80 498.40-10.20L498.40-10.20L498.40-10.20Q489.80 9.80 484.80 28L484.80 28L484.80 28Q479.80 46.20 479.80 58.60L479.80 58.60L479.80 58.60Q479.80 65 481.30 68.40L481.30 68.40L481.30 68.40Q482.80 71.80 484.80 71.80L484.80 71.80ZM628.80 5.40L628.80 5.40Q618.40 5.40 612.90 0.60L612.90 0.60L612.90 0.60Q607.40-4.20 607.40-10.20L607.40-10.20L607.40-10.20Q607.40-15.40 611.20-19.20L611.20-19.20L611.20-19.20Q615.00-23 622.40-23L622.40-23L622.40-23Q625.00-23 628.50-22.50L628.50-22.50L628.50-22.50Q632.00-22 633.80-21.80L633.80-21.80L633.80-21.80Q633.60-27 631.50-31.60L631.50-31.60L631.50-31.60Q629.40-36.20 626.20-40.50L626.20-40.50L626.20-40.50Q623.00-44.80 620.20-48L620.20-48L620.20-48Q614.00-36.20 607.90-28.40L607.90-28.40L607.90-28.40Q601.80-20.60 594.60-13.60L594.60-13.60L594.60-13.60Q591.00-10 587.00-10L587.00-10L587.00-10Q583.80-10 581.80-12.30L581.80-12.30L581.80-12.30Q579.80-14.60 579.80-18L579.80-18L579.80-18Q579.80-22 582.60-25.40L582.60-25.40L585.20-28.60L585.20-28.60Q596.20-42.20 601.80-51L601.80-51L601.80-51Q605.20-56.80 609.80-66.50L609.80-66.50L609.80-66.50Q614.40-76.20 618.80-86.60L618.80-86.60L618.80-86.60Q622.60-95.40 634.60-95.40L634.60-95.40L634.60-95.40Q640.20-95.40 642.40-94.40L642.40-94.40L642.40-94.40Q644.60-93.40 644.60-91.20L644.60-91.20L644.60-91.20Q644.60-90 643.80-87.40L643.80-87.40L643.80-87.40Q643.00-84.80 641.60-82.20L641.60-82.20L641.60-82.20Q638.00-75 638.00-70L638.00-70L638.00-70Q638.00-67 640.10-63.40L640.10-63.40L640.10-63.40Q642.20-59.80 646.60-54.40L646.60-54.40L646.60-54.40Q653.00-46 656.30-40.10L656.30-40.10L656.30-40.10Q659.60-34.20 659.60-27.20L659.60-27.20L659.60-27.20Q659.60-25.20 659.20-21.60L659.20-21.60L659.20-21.60Q669.00-25.40 682.20-41.80L682.20-41.80L682.20-41.80Q684.60-44.60 687.60-44.60L687.60-44.60L687.60-44.60Q690.20-44.60 691.70-42.20L691.70-42.20L691.70-42.20Q693.20-39.80 693.20-35.60L693.20-35.60L693.20-35.60Q693.20-28 689.40-23.20L689.40-23.20L689.40-23.20Q679.40-10.80 670.30-6.30L670.30-6.30L670.30-6.30Q661.20-1.80 647.80-1.40L647.80-1.40L647.80-1.40Q639.80 5.40 628.80 5.40L628.80 5.40ZM689.40-49.20L689.40-49.20Q684.60-48.80 681.70-52L681.70-52L681.70-52Q678.80-55.20 678.80-61L678.80-61L678.80-61Q678.80-66.40 681.50-69L681.50-69L681.50-69Q684.20-71.60 689.40-72L689.40-72L730.40-76L730.40-76Q735.40-76.40 738.10-73.50L738.10-73.50L738.10-73.50Q740.80-70.60 740.80-65L740.80-65L740.80-65Q740.80-54.20 730.40-53.20L730.40-53.20L689.40-49.20ZM794.80 5.40L794.80 5.40Q784.40 5.40 778.90 0.60L778.90 0.60L778.90 0.60Q773.40-4.20 773.40-10.20L773.40-10.20L773.40-10.20Q773.40-15.40 777.20-19.20L777.20-19.20L777.20-19.20Q781.00-23 788.40-23L788.40-23L788.40-23Q791.00-23 794.50-22.50L794.50-22.50L794.50-22.50Q798.00-22 799.80-21.80L799.80-21.80L799.80-21.80Q799.60-27 797.50-31.60L797.50-31.60L797.50-31.60Q795.40-36.20 792.20-40.50L792.20-40.50L792.20-40.50Q789.00-44.80 786.20-48L786.20-48L786.20-48Q780.00-36.20 773.90-28.40L773.90-28.40L773.90-28.40Q767.80-20.60 760.60-13.60L760.60-13.60L760.60-13.60Q757.00-10 753.00-10L753.00-10L753.00-10Q749.80-10 747.80-12.30L747.80-12.30L747.80-12.30Q745.80-14.60 745.80-18L745.80-18L745.80-18Q745.80-22 748.60-25.40L748.60-25.40L751.20-28.60L751.20-28.60Q762.20-42.20 767.80-51L767.80-51L767.80-51Q771.20-56.80 775.80-66.50L775.80-66.50L775.80-66.50Q780.40-76.20 784.80-86.60L784.80-86.60L784.80-86.60Q788.60-95.40 800.60-95.40L800.60-95.40L800.60-95.40Q806.20-95.40 808.40-94.40L808.40-94.40L808.40-94.40Q810.60-93.40 810.60-91.20L810.60-91.20L810.60-91.20Q810.60-90 809.80-87.40L809.80-87.40L809.80-87.40Q809.00-84.80 807.60-82.20L807.60-82.20L807.60-82.20Q804.00-75 804.00-70L804.00-70L804.00-70Q804.00-67 806.10-63.40L806.10-63.40L806.10-63.40Q808.20-59.80 812.60-54.40L812.60-54.40L812.60-54.40Q819.00-46 822.30-40.10L822.30-40.10L822.30-40.10Q825.60-34.20 825.60-27.20L825.60-27.20L825.60-27.20Q825.60-25.20 825.20-21.60L825.20-21.60L825.20-21.60Q835.00-25.40 848.20-41.80L848.20-41.80L848.20-41.80Q850.60-44.60 853.60-44.60L853.60-44.60L853.60-44.60Q856.20-44.60 857.70-42.20L857.70-42.20L857.70-42.20Q859.20-39.80 859.20-35.60L859.20-35.60L859.20-35.60Q859.20-28 855.40-23.20L855.40-23.20L855.40-23.20Q845.40-10.80 836.30-6.30L836.30-6.30L836.30-6.30Q827.20-1.80 813.80-1.40L813.80-1.40L813.80-1.40Q805.80 5.40 794.80 5.40L794.80 5.40ZM945.40-44.20L945.40-44.20Q948.00-44.20 949.50-41.70L949.50-41.70L949.50-41.70Q951.00-39.20 951.00-35.40L951.00-35.40L951.00-35.40Q951.00-30.80 949.60-28.20L949.60-28.20L949.60-28.20Q948.20-25.60 945.20-23.60L945.20-23.60L906.80 2.20L906.80 2.20Q899.20 43.60 886.90 67.30L886.90 67.30L886.90 67.30Q874.60 91 855.60 91L855.60 91L855.60 91Q845.40 91 839.00 84.70L839.00 84.70L839.00 84.70Q832.60 78.40 832.60 68.20L832.60 68.20L832.60 68.20Q832.60 58.80 836.90 49L836.90 49L836.90 49Q841.20 39.20 852.90 26.50L852.90 26.50L852.90 26.50Q864.60 13.80 886.00-2.60L886.00-2.60L886.60-7.20L886.60-7.20Q888.00-14.60 889.80-28.40L889.80-28.40L889.80-28.40Q885.80-14 878.60-6.50L878.60-6.50L878.60-6.50Q871.40 1 863.40 1L863.40 1L863.40 1Q854.40 1 848.70-7.30L848.70-7.30L848.70-7.30Q843.00-15.60 843.00-28L843.00-28L843.00-28Q843.00-43 845.00-55.50L845.00-55.50L845.00-55.50Q847.00-68 851.60-82L851.60-82L851.60-82Q853.60-88 857.20-90.60L857.20-90.60L857.20-90.60Q860.80-93.20 868.60-93.20L868.60-93.20L868.60-93.20Q873.00-93.20 874.70-91.80L874.70-91.80L874.70-91.80Q876.40-90.40 876.40-87.60L876.40-87.60L876.40-87.60Q876.40-86 874.20-76.80L874.20-76.80L874.20-76.80Q872.20-69.40 871.00-63.40L871.00-63.40L871.00-63.40Q869.40-55.20 868.20-47.70L868.20-47.70L868.20-47.70Q867.00-40.20 867.00-35.40L867.00-35.40L867.00-35.40Q867.00-27.80 871.20-27.80L871.20-27.80L871.20-27.80Q874.20-27.80 878.70-33.80L878.70-33.80L878.70-33.80Q883.20-39.80 888.30-52L888.30-52L888.30-52Q893.40-64.20 898.20-82L898.20-82L898.20-82Q899.80-88 903.10-90.60L903.10-90.60L903.10-90.60Q906.40-93.20 913.00-93.20L913.00-93.20L913.00-93.20Q917.60-93.20 919.40-92L919.40-92L919.40-92Q921.20-90.80 921.20-88L921.20-88L921.20-88Q921.20-83 916.00-53.60L916.00-53.60L910.80-21.40L910.80-21.40Q926.20-33 940.80-42.60L940.80-42.60L940.80-42.60Q943.40-44.20 945.40-44.20L945.40-44.20ZM857.80 71.60L857.80 71.60Q862.80 71.60 869.00 60L869.00 60L869.00 60Q875.20 48.40 881.40 21.40L881.40 21.40L881.40 21.40Q866.00 34.40 859.10 45.10L859.10 45.10L859.10 45.10Q852.20 55.80 852.20 63.80L852.20 63.80L852.20 63.80Q852.20 67.20 853.50 69.40L853.50 69.40L853.50 69.40Q854.80 71.60 857.80 71.60L857.80 71.60ZM953 1L953 1Q945.40 1 942.30-7L942.30-7L942.30-7Q939.20-15 939.20-32.60L939.20-32.60L939.20-32.60Q939.20-58.60 946.60-82L946.60-82L946.60-82Q948.40-87.80 952.50-90.50L952.50-90.50L952.50-90.50Q956.60-93.20 964-93.20L964-93.20L964-93.20Q968-93.20 969.60-92.20L969.60-92.20L969.60-92.20Q971.20-91.20 971.20-88.40L971.20-88.40L971.20-88.40Q971.20-85.20 968.20-74L968.20-74L968.20-74Q966.20-66 965-60L965-60L965-60Q963.80-54 963-45.20L963-45.20L963-45.20Q969.60-62.40 977.80-73.20L977.80-73.20L977.80-73.20Q986-84 993.90-88.60L993.90-88.60L993.90-88.60Q1001.80-93.20 1008.40-93.20L1008.40-93.20L1008.40-93.20Q1021.40-93.20 1021.40-80.20L1021.40-80.20L1021.40-80.20Q1021.40-72.40 1017-52L1017-52L1017-52Q1013.20-34.60 1013.20-29L1013.20-29L1013.20-29Q1013.20-21 1019-21L1019-21L1019-21Q1023-21 1028.50-25.90L1028.50-25.90L1028.50-25.90Q1034-30.80 1043.20-41.80L1043.20-41.80L1043.20-41.80Q1045.60-44.60 1048.60-44.60L1048.60-44.60L1048.60-44.60Q1051.20-44.60 1052.70-42.20L1052.70-42.20L1052.70-42.20Q1054.20-39.80 1054.20-35.60L1054.20-35.60L1054.20-35.60Q1054.20-27.60 1050.40-23.20L1050.40-23.20L1050.40-23.20Q1041.80-12.60 1031.90-5.80L1031.90-5.80L1031.90-5.80Q1022 1 1009.40 1L1009.40 1L1009.40 1Q999.20 1 994-4.90L994-4.90L994-4.90Q988.80-10.80 988.80-22L988.80-22L988.80-22Q988.80-27.60 991.60-42L991.60-42L991.60-42Q994.20-54.60 994.20-59.40L994.20-59.40L994.20-59.40Q994.20-62.60 992-62.60L992-62.60L992-62.60Q989.40-62.60 984.70-55.90L984.70-55.90L984.70-55.90Q980-49.20 975.10-38.20L975.10-38.20L975.10-38.20Q970.20-27.20 967.20-15L967.20-15L967.20-15Q965-5.60 962.10-2.30L962.10-2.30L962.10-2.30Q959.20 1 953 1L953 1ZM1076.20 1L1076.20 1Q1056.60 1 1045.70-10.10L1045.70-10.10L1045.70-10.10Q1034.80-21.20 1034.80-39.40L1034.80-39.40L1034.80-39.40Q1034.80-55.60 1041.20-67.80L1041.20-67.80L1041.20-67.80Q1047.60-80 1057.80-86.60L1057.80-86.60L1057.80-86.60Q1068-93.20 1079.20-93.20L1079.20-93.20L1079.20-93.20Q1090.20-93.20 1096.30-86.70L1096.30-86.70L1096.30-86.70Q1102.40-80.20 1102.40-70L1102.40-70L1102.40-70Q1102.40-61.60 1098.70-55.80L1098.70-55.80L1098.70-55.80Q1095-50 1089-50L1089-50L1089-50Q1085.20-50 1082.90-51.80L1082.90-51.80L1082.90-51.80Q1080.60-53.60 1080.60-56.80L1080.60-56.80L1080.60-56.80Q1080.60-58.20 1081-60L1081-60L1081-60Q1081.40-61.80 1081.60-62.60L1081.60-62.60L1081.60-62.60Q1082.60-65.60 1082.60-68.20L1082.60-68.20L1082.60-68.20Q1082.60-70.80 1081.30-72.20L1081.30-72.20L1081.30-72.20Q1080-73.60 1077.60-73.60L1077.60-73.60L1077.60-73.60Q1073-73.60 1069-69.50L1069-69.50L1069-69.50Q1065-65.40 1062.60-58.40L1062.60-58.40L1062.60-58.40Q1060.20-51.40 1060.20-43L1060.20-43L1060.20-43Q1060.20-19.80 1080.40-19.80L1080.40-19.80L1080.40-19.80Q1088.60-19.80 1098.10-25.30L1098.10-25.30L1098.10-25.30Q1107.60-30.80 1116.80-41.80L1116.80-41.80L1116.80-41.80Q1119.20-44.60 1122.20-44.60L1122.20-44.60L1122.20-44.60Q1124.80-44.60 1126.30-42.20L1126.30-42.20L1126.30-42.20Q1127.80-39.80 1127.80-35.60L1127.80-35.60L1127.80-35.60Q1127.80-28 1124-23.20L1124-23.20L1124-23.20Q1114.60-11.60 1101.50-5.30L1101.50-5.30L1101.50-5.30Q1088.40 1 1076.20 1L1076.20 1ZM1200.80-44.60L1200.80-44.60Q1203.40-44.60 1204.90-42.20L1204.90-42.20L1204.90-42.20Q1206.40-39.80 1206.40-35.60L1206.40-35.60L1206.40-35.60Q1206.40-27.60 1202.60-23.20L1202.60-23.20L1202.60-23.20Q1195.20-14.20 1181.70-6.60L1181.70-6.60L1181.70-6.60Q1168.20 1 1152.80 1L1152.80 1L1152.80 1Q1131.80 1 1120.20-10.40L1120.20-10.40L1120.20-10.40Q1108.60-21.80 1108.60-41.60L1108.60-41.60L1108.60-41.60Q1108.60-55.40 1114.40-67.30L1114.40-67.30L1114.40-67.30Q1120.20-79.20 1130.50-86.20L1130.50-86.20L1130.50-86.20Q1140.80-93.20 1153.80-93.20L1153.80-93.20L1153.80-93.20Q1165.40-93.20 1172.40-86.30L1172.40-86.30L1172.40-86.30Q1179.40-79.40 1179.40-67.60L1179.40-67.60L1179.40-67.60Q1179.40-53.80 1169.50-43.90L1169.50-43.90L1169.50-43.90Q1159.60-34 1136-28.20L1136-28.20L1136-28.20Q1141-19 1155-19L1155-19L1155-19Q1164-19 1175.50-25.30L1175.50-25.30L1175.50-25.30Q1187-31.60 1195.40-41.80L1195.40-41.80L1195.40-41.80Q1197.80-44.60 1200.80-44.60L1200.80-44.60ZM1150.40-73.60L1150.40-73.60Q1143-73.60 1137.90-65L1137.90-65L1137.90-65Q1132.80-56.40 1132.80-44.20L1132.80-44.20L1132.80-43.80L1132.80-43.80Q1144.60-46.60 1151.40-52.20L1151.40-52.20L1151.40-52.20Q1158.20-57.80 1158.20-65.20L1158.20-65.20L1158.20-65.20Q1158.20-69 1156.10-71.30L1156.10-71.30L1156.10-71.30Q1154-73.60 1150.40-73.60L1150.40-73.60ZM1204.40 1L1204.40 1Q1196.80 1 1193.70-7L1193.70-7L1193.70-7Q1190.60-15 1190.60-32.60L1190.60-32.60L1190.60-32.60Q1190.60-58.60 1198-82L1198-82L1198-82Q1199.80-87.80 1203.90-90.50L1203.90-90.50L1203.90-90.50Q1208-93.20 1215.40-93.20L1215.40-93.20L1215.40-93.20Q1219.40-93.20 1221-92.20L1221-92.20L1221-92.20Q1222.60-91.20 1222.60-88.40L1222.60-88.40L1222.60-88.40Q1222.60-85.20 1219.60-74L1219.60-74L1219.60-74Q1217.60-66 1216.40-60L1216.40-60L1216.40-60Q1215.20-54 1214.40-45.20L1214.40-45.20L1214.40-45.20Q1221-62.40 1229.20-73.20L1229.20-73.20L1229.20-73.20Q1237.40-84 1245.30-88.60L1245.30-88.60L1245.30-88.60Q1253.20-93.20 1259.80-93.20L1259.80-93.20L1259.80-93.20Q1272.80-93.20 1272.80-80.20L1272.80-80.20L1272.80-80.20Q1272.80-77.60 1271-67.60L1271-67.60L1271-67.60Q1269.40-59.60 1269.40-57.60L1269.40-57.60L1269.40-57.60Q1269.40-50.60 1274.40-50.60L1274.40-50.60L1274.40-50.60Q1280-50.60 1288.80-59.40L1288.80-59.40L1288.80-59.40Q1291.40-62 1294.20-62L1294.20-62L1294.20-62Q1296.80-62 1298.30-59.70L1298.30-59.70L1298.30-59.70Q1299.80-57.40 1299.80-53.60L1299.80-53.60L1299.80-53.60Q1299.80-46.20 1295.80-42L1295.80-42L1295.80-42Q1290.20-36.20 1282.70-32.10L1282.70-32.10L1282.70-32.10Q1275.20-28 1266.80-28L1266.80-28L1266.80-28Q1256.20-28 1250.70-33.40L1250.70-33.40L1250.70-33.40Q1245.20-38.80 1245.20-48L1245.20-48L1245.20-48Q1245.20-51 1245.80-54L1245.80-54L1245.80-54Q1246.20-58 1246.20-59.40L1246.20-59.40L1246.20-59.40Q1246.20-62.60 1244-62.60L1244-62.60L1244-62.60Q1241-62.60 1236.10-55.90L1236.10-55.90L1236.10-55.90Q1231.20-49.20 1226.40-38.20L1226.40-38.20L1226.40-38.20Q1221.60-27.20 1218.60-15L1218.60-15L1218.60-15Q1216.40-5.60 1213.50-2.30L1213.50-2.30L1213.50-2.30Q1210.60 1 1204.40 1L1204.40 1Z" fill="#e93927"></path></g></g><style>text {
  font-size: 64px;
  font-family: Arial Black;
  dominant-baseline: central;
  text-anchor: middle;
}</style></svg>